<svg width="48" height="48" viewBox="0 0 48 48" fill="none" xmlns="http://www.w3.org/2000/svg">
  <!-- Paw prints -->
  <ellipse cx="18" cy="12" rx="4" ry="5" fill="#2D9165"/>
  <ellipse cx="30" cy="12" rx="4" ry="5" fill="#2D9165"/>
  <ellipse cx="12" cy="18" rx="4" ry="5" fill="#2D9165"/>
  <ellipse cx="36" cy="18" rx="4" ry="5" fill="#2D9165"/>
  
  <!-- House with pets -->
  <path d="M24 20L10 30V44H38V30L24 20Z" fill="#2D9165"/>
  <path d="M10 30L24 20L38 30H10Z" fill="#F294AC"/>
  
  <!-- Window -->
  <rect x="20" y="26" width="8" height="8" fill="#F294AC" rx="1"/>
  
  <!-- Leaf decorations -->
  <path d="M14 38C14 38 12 36 12 34C12 32 14 30 14 30" stroke="#D4C3A3" stroke-width="1.5" stroke-linecap="round"/>
  <path d="M34 38C34 38 36 36 36 34C36 32 34 30 34 30" stroke="#D4C3A3" stroke-width="1.5" stroke-linecap="round"/>
</svg>
